Plot:
After his horse is sold to the British calvary during World War I, a young man enlists as a soldier in hopes of one day being reconnected with the animal he raised.


Cast:
Jeremy Irvine    ...    Albert Narracott
Peter Mullan     ...    Ted Narracott
Emily Watson     ...    Rose Narracott
Niels Arestrup   ...    Grandfather
David Thewlis    ...    Lyons
 
http://www.shotpix.com/images/39472559209724034504.png 
http://www.shotpix.com/images/21522783674484416106.png 
http://www.shotpix.com/images/35399843955577342358.png
 
http://www.imdb.com/title/tt1568911/

General
Complete name                  : War.Horse.2011.DVDScr.XVID.AC3.HQ.Hive-CM8.avi
Format                         : AVI
Format/Info                    : Audio Video Interleave
Format profile                 : OpenDML
Format settings                : rec
File size                      : 2.20 GiB
Duration                       : 2h 26mn
Overall bit rate               : 2 149 Kbps
Writing application            : AVI-Mux GUI 1.17.7, Aug  8 2006  20:59:17

Video
ID                             : 0
Format                         : MPEG-4 Visual
Format profile                 : Advanced Simple@L5
Format settings, BVOP          : 2
Format settings, QPel          : Yes
Format settings, GMC           : No warppoints
Format settings, Matrix        : Default (H.263)
Muxing mode                    : Packed bitstream
Codec ID                       : XVID
Codec ID/Hint                  : XviD
Duration                       : 2h 26mn
Bit rate                       : 1 696 Kbps
Width                          : 720 pixels
Height                         : 304 pixels
Display aspect ratio           : 2.35:1
Frame rate                     : 23.976 fps
Color space                    : YUV
Chroma subsampling             : 4:2:0
Bit depth                      : 8 bits
Scan type                      : Progressive
Compression mode               : Lossy
Bits/(Pixel*Frame)             : 0.323
Stream size                    : 1.74 GiB (79%)
Writing library                : XviD 1.2.1 (UTC 2008-12-04)

Audio
ID                             : 1
Format                         : AC-3
Format/Info                    : Audio Coding 3
Mode extension                 : CM (complete main)
Codec ID                       : 2000
Duration                       : 2h 26mn
Bit rate mode                  : Constant
Bit rate                       : 448 Kbps
Channel(s)                     : 6 channels
Channel positions              : Front: L C R, Side: L R, LFE
Sampling rate                  : 48.0 KHz
Bit depth                      : 16 bits
Compression mode               : Lossy
Stream size                    : 470 MiB (21%)
Alignment                      : Aligned on interleaves
Interleave, duration           : 64 ms (1.53 video frames)
Interleave, preload duration   : 192 ms

